<?xml version="1.0" encoding="UTF-8" standalone="no"?>
<svg
   viewBox="0 0 512 512"
   version="1.1"
   id="svg269"
   sodipodi:docname="h-v2.svg"
   inkscape:version="1.2.1 (9c6d41e, 2022-07-14)"
   xmlns:inkscape="http://www.inkscape.org/namespaces/inkscape"
   xmlns:sodipodi="http://sodipodi.sourceforge.net/DTD/sodipodi-0.dtd"
   xmlns="http://www.w3.org/2000/svg"
   xmlns:svg="http://www.w3.org/2000/svg">
  <defs
     id="defs273" />
  <sodipodi:namedview
     id="namedview271"
     pagecolor="#ffffff"
     bordercolor="#000000"
     borderopacity="0.25"
     inkscape:showpageshadow="2"
     inkscape:pageopacity="0.0"
     inkscape:pagecheckerboard="0"
     inkscape:deskcolor="#d1d1d1"
     showgrid="false"
     inkscape:zoom="0.4609375"
     inkscape:cx="106.30508"
     inkscape:cy="256"
     inkscape:window-width="1309"
     inkscape:window-height="456"
     inkscape:window-x="0"
     inkscape:window-y="243"
     inkscape:window-maximized="0"
     inkscape:current-layer="svg269" />
  <rect
     width="512"
     height="512"
     rx="110"
     fill="#6d0f13"
     id="rect9" />
  <circle
     cx="152.0"
     cy="74.0"
     r="5.48"
     fill="#fef3c7"
     id="circle13" />
  <circle
     cx="178.0"
     cy="74.0"
     r="6.19"
     fill="#fef3c7"
     id="circle15" />
  <circle
     cx="334.0"
     cy="74.0"
     r="10.45"
     fill="#fef3c7"
     id="circle21" />
  <circle
     cx="360.0"
     cy="74.0"
     r="11.16"
     fill="#fef3c7"
     id="circle23" />
  <circle
     cx="126.0"
     cy="100.0"
     r="4.77"
     fill="#fef3c7"
     id="circle27" />
  <circle
     cx="152.0"
     cy="100.0"
     r="5.48"
     fill="#fef3c7"
     id="circle29" />
  <circle
     cx="178.0"
     cy="100.0"
     r="6.19"
     fill="#fef3c7"
     id="circle31" />
  <circle
     cx="204.0"
     cy="100.0"
     r="6.90"
     fill="#fef3c7"
     id="circle33" />
  <circle
     cx="308.0"
     cy="100.0"
     r="9.74"
     fill="#fef3c7"
     id="circle35" />
  <circle
     cx="334.0"
     cy="100.0"
     r="10.45"
     fill="#fef3c7"
     id="circle37" />
  <circle
     cx="360.0"
     cy="100.0"
     r="11.16"
     fill="#fef3c7"
     id="circle39" />
  <circle
     cx="386.0"
     cy="100.0"
     r="11.87"
     fill="#fef3c7"
     id="circle41" />
  <circle
     cx="126.0"
     cy="126.0"
     r="4.77"
     fill="#fef3c7"
     id="circle43" />
  <circle
     cx="152.0"
     cy="126.0"
     r="5.48"
     fill="#fef3c7"
     id="circle45" />
  <circle
     cx="178.0"
     cy="126.0"
     r="6.19"
     fill="#fef3c7"
     id="circle47" />
  <circle
     cx="204.0"
     cy="126.0"
     r="6.90"
     fill="#fef3c7"
     id="circle49" />
  <circle
     cx="308.0"
     cy="126.0"
     r="9.74"
     fill="#fef3c7"
     id="circle51" />
  <circle
     cx="334.0"
     cy="126.0"
     r="10.45"
     fill="#fef3c7"
     id="circle53" />
  <circle
     cx="360.0"
     cy="126.0"
     r="11.16"
     fill="#fef3c7"
     id="circle55" />
  <circle
     cx="386.0"
     cy="126.0"
     r="11.87"
     fill="#fef3c7"
     id="circle57" />
  <circle
     cx="126.0"
     cy="152.0"
     r="4.77"
     fill="#fef3c7"
     id="circle59" />
  <circle
     cx="152.0"
     cy="152.0"
     r="5.48"
     fill="#fef3c7"
     id="circle61" />
  <circle
     cx="178.0"
     cy="152.0"
     r="6.19"
     fill="#fef3c7"
     id="circle63" />
  <circle
     cx="204.0"
     cy="152.0"
     r="6.90"
     fill="#fef3c7"
     id="circle65" />
  <circle
     cx="308.0"
     cy="152.0"
     r="9.74"
     fill="#fef3c7"
     id="circle67" />
  <circle
     cx="334.0"
     cy="152.0"
     r="10.45"
     fill="#fef3c7"
     id="circle69" />
  <circle
     cx="360.0"
     cy="152.0"
     r="11.16"
     fill="#fef3c7"
     id="circle71" />
  <circle
     cx="386.0"
     cy="152.0"
     r="11.87"
     fill="#fef3c7"
     id="circle73" />
  <circle
     cx="126.0"
     cy="178.0"
     r="4.77"
     fill="#fef3c7"
     id="circle75" />
  <circle
     cx="152.0"
     cy="178.0"
     r="5.48"
     fill="#fef3c7"
     id="circle77" />
  <circle
     cx="178.0"
     cy="178.0"
     r="6.19"
     fill="#fef3c7"
     id="circle79" />
  <circle
     cx="204.0"
     cy="178.0"
     r="6.90"
     fill="#fef3c7"
     id="circle81" />
  <circle
     cx="308.0"
     cy="178.0"
     r="9.74"
     fill="#fef3c7"
     id="circle83" />
  <circle
     cx="334.0"
     cy="178.0"
     r="10.45"
     fill="#fef3c7"
     id="circle85" />
  <circle
     cx="360.0"
     cy="178.0"
     r="11.16"
     fill="#fef3c7"
     id="circle87" />
  <circle
     cx="386.0"
     cy="178.0"
     r="11.87"
     fill="#fef3c7"
     id="circle89" />
  <circle
     cx="126.0"
     cy="204.0"
     r="4.77"
     fill="#fef3c7"
     id="circle91" />
  <circle
     cx="152.0"
     cy="204.0"
     r="5.48"
     fill="#fef3c7"
     id="circle93" />
  <circle
     cx="178.0"
     cy="204.0"
     r="6.19"
     fill="#fef3c7"
     id="circle95" />
  <circle
     cx="204.0"
     cy="204.0"
     r="6.90"
     fill="#fef3c7"
     id="circle97" />
  <circle
     cx="308.0"
     cy="204.0"
     r="9.74"
     fill="#fef3c7"
     id="circle99" />
  <circle
     cx="334.0"
     cy="204.0"
     r="10.45"
     fill="#fef3c7"
     id="circle101" />
  <circle
     cx="360.0"
     cy="204.0"
     r="11.16"
     fill="#fef3c7"
     id="circle103" />
  <circle
     cx="386.0"
     cy="204.0"
     r="11.87"
     fill="#fef3c7"
     id="circle105" />
  <circle
     cx="126.0"
     cy="230.0"
     r="4.77"
     fill="#fef3c7"
     id="circle107" />
  <circle
     cx="152.0"
     cy="230.0"
     r="5.48"
     fill="#fef3c7"
     id="circle109" />
  <circle
     cx="178.0"
     cy="230.0"
     r="6.19"
     fill="#fef3c7"
     id="circle111" />
  <circle
     cx="204.0"
     cy="230.0"
     r="6.90"
     fill="#fef3c7"
     id="circle113" />
  <circle
     cx="230.0"
     cy="230.0"
     r="7.61"
     fill="#fef3c7"
     id="circle115" />
  <circle
     cx="256.0"
     cy="230.0"
     r="8.32"
     fill="#fef3c7"
     id="circle117" />
  <circle
     cx="282.0"
     cy="230.0"
     r="9.03"
     fill="#fef3c7"
     id="circle119" />
  <circle
     cx="308.0"
     cy="230.0"
     r="9.74"
     fill="#fef3c7"
     id="circle121" />
  <circle
     cx="334.0"
     cy="230.0"
     r="10.45"
     fill="#fef3c7"
     id="circle123" />
  <circle
     cx="360.0"
     cy="230.0"
     r="11.16"
     fill="#fef3c7"
     id="circle125" />
  <circle
     cx="386.0"
     cy="230.0"
     r="11.87"
     fill="#fef3c7"
     id="circle127" />
  <circle
     cx="126.0"
     cy="256.0"
     r="4.77"
     fill="#fef3c7"
     id="circle129" />
  <circle
     cx="152.0"
     cy="256.0"
     r="5.48"
     fill="#fef3c7"
     id="circle131" />
  <circle
     cx="178.0"
     cy="256.0"
     r="6.19"
     fill="#fef3c7"
     id="circle133" />
  <circle
     cx="204.0"
     cy="256.0"
     r="6.90"
     fill="#fef3c7"
     id="circle135" />
  <circle
     cx="230.0"
     cy="256.0"
     r="7.61"
     fill="#fef3c7"
     id="circle137" />
  <circle
     cx="256.0"
     cy="256.0"
     r="8.32"
     fill="#fef3c7"
     id="circle139" />
  <circle
     cx="282.0"
     cy="256.0"
     r="9.03"
     fill="#fef3c7"
     id="circle141" />
  <circle
     cx="308.0"
     cy="256.0"
     r="9.74"
     fill="#fef3c7"
     id="circle143" />
  <circle
     cx="334.0"
     cy="256.0"
     r="10.45"
     fill="#fef3c7"
     id="circle145" />
  <circle
     cx="360.0"
     cy="256.0"
     r="11.16"
     fill="#fef3c7"
     id="circle147" />
  <circle
     cx="386.0"
     cy="256.0"
     r="11.87"
     fill="#fef3c7"
     id="circle149" />
  <circle
     cx="126.0"
     cy="282.0"
     r="4.77"
     fill="#fef3c7"
     id="circle151" />
  <circle
     cx="152.0"
     cy="282.0"
     r="5.48"
     fill="#fef3c7"
     id="circle153" />
  <circle
     cx="178.0"
     cy="282.0"
     r="6.19"
     fill="#fef3c7"
     id="circle155" />
  <circle
     cx="204.0"
     cy="282.0"
     r="6.90"
     fill="#fef3c7"
     id="circle157" />
  <circle
     cx="230.0"
     cy="282.0"
     r="7.61"
     fill="#fef3c7"
     id="circle159" />
  <circle
     cx="256.0"
     cy="282.0"
     r="8.32"
     fill="#fef3c7"
     id="circle161" />
  <circle
     cx="282.0"
     cy="282.0"
     r="9.03"
     fill="#fef3c7"
     id="circle163" />
  <circle
     cx="308.0"
     cy="282.0"
     r="9.74"
     fill="#fef3c7"
     id="circle165" />
  <circle
     cx="334.0"
     cy="282.0"
     r="10.45"
     fill="#fef3c7"
     id="circle167" />
  <circle
     cx="360.0"
     cy="282.0"
     r="11.16"
     fill="#fef3c7"
     id="circle169" />
  <circle
     cx="386.0"
     cy="282.0"
     r="11.87"
     fill="#fef3c7"
     id="circle171" />
  <circle
     cx="126.0"
     cy="308.0"
     r="4.77"
     fill="#fef3c7"
     id="circle173" />
  <circle
     cx="152.0"
     cy="308.0"
     r="5.48"
     fill="#fef3c7"
     id="circle175" />
  <circle
     cx="178.0"
     cy="308.0"
     r="6.19"
     fill="#fef3c7"
     id="circle177" />
  <circle
     cx="204.0"
     cy="308.0"
     r="6.90"
     fill="#fef3c7"
     id="circle179" />
  <circle
     cx="308.0"
     cy="308.0"
     r="9.74"
     fill="#fef3c7"
     id="circle181" />
  <circle
     cx="334.0"
     cy="308.0"
     r="10.45"
     fill="#fef3c7"
     id="circle183" />
  <circle
     cx="360.0"
     cy="308.0"
     r="11.16"
     fill="#fef3c7"
     id="circle185" />
  <circle
     cx="386.0"
     cy="308.0"
     r="11.87"
     fill="#fef3c7"
     id="circle187" />
  <circle
     cx="126.0"
     cy="334.0"
     r="4.77"
     fill="#fef3c7"
     id="circle189" />
  <circle
     cx="152.0"
     cy="334.0"
     r="5.48"
     fill="#fef3c7"
     id="circle191" />
  <circle
     cx="178.0"
     cy="334.0"
     r="6.19"
     fill="#fef3c7"
     id="circle193" />
  <circle
     cx="204.0"
     cy="334.0"
     r="6.90"
     fill="#fef3c7"
     id="circle195" />
  <circle
     cx="308.0"
     cy="334.0"
     r="9.74"
     fill="#fef3c7"
     id="circle197" />
  <circle
     cx="334.0"
     cy="334.0"
     r="10.45"
     fill="#fef3c7"
     id="circle199" />
  <circle
     cx="360.0"
     cy="334.0"
     r="11.16"
     fill="#fef3c7"
     id="circle201" />
  <circle
     cx="386.0"
     cy="334.0"
     r="11.87"
     fill="#fef3c7"
     id="circle203" />
  <circle
     cx="126.0"
     cy="360.0"
     r="4.77"
     fill="#fef3c7"
     id="circle205" />
  <circle
     cx="152.0"
     cy="360.0"
     r="5.48"
     fill="#fef3c7"
     id="circle207" />
  <circle
     cx="178.0"
     cy="360.0"
     r="6.19"
     fill="#fef3c7"
     id="circle209" />
  <circle
     cx="204.0"
     cy="360.0"
     r="6.90"
     fill="#fef3c7"
     id="circle211" />
  <circle
     cx="308.0"
     cy="360.0"
     r="9.74"
     fill="#fef3c7"
     id="circle213" />
  <circle
     cx="334.0"
     cy="360.0"
     r="10.45"
     fill="#fef3c7"
     id="circle215" />
  <circle
     cx="360.0"
     cy="360.0"
     r="11.16"
     fill="#fef3c7"
     id="circle217" />
  <circle
     cx="386.0"
     cy="360.0"
     r="11.87"
     fill="#fef3c7"
     id="circle219" />
  <circle
     cx="126.0"
     cy="386.0"
     r="4.77"
     fill="#fef3c7"
     id="circle221" />
  <circle
     cx="152.0"
     cy="386.0"
     r="5.48"
     fill="#fef3c7"
     id="circle223" />
  <circle
     cx="178.0"
     cy="386.0"
     r="6.19"
     fill="#fef3c7"
     id="circle225" />
  <circle
     cx="204.0"
     cy="386.0"
     r="6.90"
     fill="#fef3c7"
     id="circle227" />
  <circle
     cx="308.0"
     cy="386.0"
     r="9.74"
     fill="#fef3c7"
     id="circle229" />
  <circle
     cx="334.0"
     cy="386.0"
     r="10.45"
     fill="#fef3c7"
     id="circle231" />
  <circle
     cx="360.0"
     cy="386.0"
     r="11.16"
     fill="#fef3c7"
     id="circle233" />
  <circle
     cx="386.0"
     cy="386.0"
     r="11.87"
     fill="#fef3c7"
     id="circle235" />
  <circle
     cx="126.0"
     cy="412.0"
     r="4.77"
     fill="#fef3c7"
     id="circle237" />
  <circle
     cx="152.0"
     cy="412.0"
     r="5.48"
     fill="#fef3c7"
     id="circle239" />
  <circle
     cx="178.0"
     cy="412.0"
     r="6.19"
     fill="#fef3c7"
     id="circle241" />
  <circle
     cx="204.0"
     cy="412.0"
     r="6.90"
     fill="#fef3c7"
     id="circle243" />
  <circle
     cx="308.0"
     cy="412.0"
     r="9.74"
     fill="#fef3c7"
     id="circle245" />
  <circle
     cx="334.0"
     cy="412.0"
     r="10.45"
     fill="#fef3c7"
     id="circle247" />
  <circle
     cx="360.0"
     cy="412.0"
     r="11.16"
     fill="#fef3c7"
     id="circle249" />
  <circle
     cx="386.0"
     cy="412.0"
     r="11.87"
     fill="#fef3c7"
     id="circle251" />
  <circle
     cx="152.0"
     cy="438.0"
     r="5.48"
     fill="#fef3c7"
     id="circle255" />
  <circle
     cx="178.0"
     cy="438.0"
     r="6.19"
     fill="#fef3c7"
     id="circle257" />
  <circle
     cx="334.0"
     cy="438.0"
     r="10.45"
     fill="#fef3c7"
     id="circle263" />
  <circle
     cx="360.0"
     cy="438.0"
     r="11.16"
     fill="#fef3c7"
     id="circle265" />
</svg>
